<?xml version="1.0" standalone="no"?>
<!DOCTYPE svg PUBLIC "-//W3C//DTD SVG 20010904//EN"
 "http://www.w3.org/TR/2001/REC-SVG-20010904/DTD/svg10.dtd">
<svg version="1.0" xmlns="http://www.w3.org/2000/svg"
 width="449.000000pt" height="449.000000pt" viewBox="0 0 449.000000 449.000000"
 preserveAspectRatio="xMidYMid meet">
<metadata>
Created by potrace 1.14, written by Peter Selinger 2001-2017
</metadata>
<g transform="translate(0.000000,449.000000) scale(0.100000,-0.100000)"
fill="#000000" stroke="none">
<path d="M2176 4473 c-10 -3 -48 -23 -83 -44 -35 -21 -65 -39 -67 -39 -2 0
-65 -36 -141 -80 -76 -44 -139 -80 -141 -80 -3 0 -21 -11 -42 -24 -20 -13
-188 -110 -372 -216 -184 -106 -375 -216 -425 -245 -49 -29 -193 -112 -320
-185 -126 -73 -242 -147 -258 -164 -53 -60 -52 -33 -52 -1168 1 -980 2 -1055
18 -1088 10 -19 26 -45 36 -57 15 -18 175 -115 418 -254 58 -33 473 -272 953
-550 l475 -274 70 0 70 0 440 254 c242 140 519 300 615 356 96 56 303 176 460
266 156 90 299 176 316 191 70 61 66 -4 66 1173 -1 1037 -1 1061 -20 1100 -11
22 -33 52 -49 66 -20 19 -1018 601 -1188 693 -11 6 -31 18 -45 27 -14 9 -153
90 -310 180 -274 158 -287 163 -345 166 -33 1 -69 -1 -79 -4z"/>
</g>
</svg>
